<svg width="47" height="47" viewBox="0 0 47 47" fill="none" xmlns="http://www.w3.org/2000/svg">
<rect width="46.9948" height="46.9948" rx="23.4974" fill="#FF7582"/>
<path d="M24.2438 20C24.2438 18.9391 23.8223 17.9217 23.0722 17.1716C22.3221 16.4214 21.3046 16 20.2438 16H14.2438V31H21.2438C22.0394 31 22.8025 31.3161 23.3651 31.8787C23.9277 32.4413 24.2438 33.2044 24.2438 34M24.2438 20V34M24.2438 20C24.2438 18.9391 24.6652 17.9217 25.4153 17.1716C26.1655 16.4214 27.1829 16 28.2438 16H34.2438V31H27.2438C26.4481 31 25.6851 31.3161 25.1225 31.8787C24.5598 32.4413 24.2438 33.2044 24.2438 34" stroke="#F2F4F7" stroke-width="3" stroke-linecap="round" stroke-linejoin="round"/>
</svg>
