<svg width="47" height="34" viewBox="0 0 47 34" fill="none" xmlns="http://www.w3.org/2000/svg">
<path d="M46.0173 5.17C45.7516 4.1701 45.2279 3.25753 44.4986 2.52362C43.7694 1.7897 42.8602 1.26019 41.862 0.988068C38.1875 5.96046e-08 23.5 0 23.5 0C23.5 0 8.8125 5.96046e-08 5.13795 0.988068C4.13978 1.26019 3.23058 1.7897 2.50135 2.52362C1.77213 3.25753 1.24845 4.1701 0.982727 5.17C1.19209e-07 8.86057 0 16.5568 0 16.5568C0 16.5568 1.19209e-07 24.2531 0.982727 27.9436C1.24845 28.9435 1.77213 29.8561 2.50135 30.59C3.23058 31.3239 4.13978 31.8534 5.13795 32.1256C8.8125 33.1136 23.5 33.1136 23.5 33.1136C23.5 33.1136 38.1875 33.1136 41.862 32.1256C42.8602 31.8534 43.7694 31.3239 44.4986 30.59C45.2279 29.8561 45.7516 28.9435 46.0173 27.9436C47 24.2531 47 16.5568 47 16.5568C47 16.5568 47 8.86057 46.0173 5.17Z" fill="#FF7582"/>
<path d="M18.6933 23.5454V9.56824L30.9774 16.5568L18.6933 23.5454Z" fill="#F2F4F7"/>
</svg>
